<svg xmlns="http://www.w3.org/2000/svg" fill="#fff" id="Layer_1" viewBox="0 0 432 316.8"><defs></defs><path d="M19.1 192.3c0-7.1-4-10.9-13.4-12.2-2.3-.3-4.3-.5-4.3-1.7s.9-1.6 3.6-1.6c3.6 0 18.5.6 24.5.6s20.4-.6 24-.6c3.4 0 5.5 0 5.5 1.7s-1.1 1.6-5.1 1.9c-11.1.8-14.2 4-14.2 13.2v9h63.2v-7c0-10.4-2.8-13.4-14-15-3.2-.5-4-.9-4-2.2s1.9-1.6 5.5-1.6c6.2 0 20.2.6 24.5.6s17.9-.6 23.2-.6c2.3 0 4 .3 4 1.9s-1.1 1.6-4.3 1.7c-11.5.9-14.2 4.7-14.2 18.5v50.8c0 9.8 3.8 13.8 14.5 14.9 3.8.5 4.9.8 4.9 2.1s-1.5 1.6-7.4 1.6-15.7-.6-20.6-.6-21.3.6-25.3.6-3.8-.5-3.8-1.6 1.1-1.3 4-1.7c9.8-1.1 13.2-4.9 13.2-14.4v-40.7H39.9V249c0 10.3 3.8 14.4 14.7 16 2.3.3 4.5.6 4.5 2.1s-2.8 1.3-7 1.3-20.8-.6-22.8-.6-23 .6-24.2.6c-3.4 0-4.9-.3-4.9-1.4s.9-1.9 4.5-2.2c10-.8 14.7-5.4 14.7-14.1v-58.2ZM363.3 225.8l-35.9-38.4c-3.6-3.8-6.8-5.7-11.9-6.5-2.3-.5-3-.8-3-1.9 0-2.2 3.4-2.2 7.2-2.2 4.3 0 12.8.6 19.1.6s15.1-.6 18.3-.6c2.8 0 4.5.6 4.5 2.1s-.8 1.4-3.6 1.9c-4.7.6-6.4 1.9-6.4 4.3s.6 3.2 1.7 4.3l26.2 28.1 22.5-25.8c2.1-2.2 3.2-4.6 3.2-6.3 0-2.8-2.3-4.3-7.2-4.7-2.6-.2-3.4-.6-3.4-1.7s2.1-2.1 5.5-2.1c1.7 0 7.7.6 12.1.6s12.3-.6 14.9-.6c3.2 0 4.9.5 4.9 1.4s-1.1 1.9-3.8 2.4c-6.6 1.4-10.6 3.8-15.7 9.6l-28.3 32.4v30.7c0 6.6 3 9.3 11.7 10.3 4.5.5 5.7 1.1 5.7 2.7s-1.3 1.9-5.3 1.9-16.6-.6-21.3-.6-17.7.6-21.5.6-6.4 0-6.4-1.7 1.5-1.9 5.7-2.5c8.3-.9 10.4-3 10.4-9.6V226ZM248.6 192.5c1.9-2.2 3.6-4.3 4.7-5.8 1.9-2.5 6.4-6 1.5-6s-4.1 0-4.1-1c0-3.1 2.9-2.8 6.3-2.8h17.4l14.2-.2c3.2 0 13.1-.6 16.8-.6s2.5 1 2.5 2.5-.9 1.9-4.5 2.1c-10 .3-14.2 4.7-14.2 14.5v49.5c0 12.5 4 17.7 15.1 19.3 3.2.5 5.3.8 5.3 2.5s-1.3 1.7-8.1 1.7-18.9-.6-23.2-.6-20.6.6-24.2.6-4.5-.6-4.5-1.9 1.1-1.9 4.9-1.9c14.7 0 11.9-15.7 11.9-49.4v-28l-45 48.5-.4-.4-41.5-47.9v61c0 9.3-.6 14.4 10.3 16 2.8.5 4.7.8 4.7 2.2s-2.3 1.7-7.7 1.7-12.3-.6-17-.6-13.8.6-17.6.6-3.2-.3-3.2-1.4.9-1.6 3.8-2.2c10.2-2.1 13.4-6.3 13.4-18.3v-52.5c0-7.3-4.3-11.5-13-13.1-2.1-.3-3.6-.6-3.6-1.9s1.3-1.9 3.8-1.9c7.2 0 16 .3 19.6.3h11.2c6.2.1 15-.5 18.2-.5s4.5.6 4.5 2.1-.9 1.4-3.6 1.9c-3.6.6-1.2 2.9.8 5.3 1 1.2 1.7 2.1 2.7 3.2l21.6 24.7 20.1-21.3ZM400.7 56.5c-3.3-4.7-7.3-8.6-11.8-12.1-7.3-5.8-15.4-10.2-23.8-14.1-.8-.4-1.6-.8-2.8-1.3 1-.6 1.7-1.1 2.4-1.5 6.7-4.1 13.5-8.2 20.2-12.3 1.6-1 3-2.1 4.4-3.2q2.25-1.95.3-4.2c-.7-.7-1.5-1.3-2.3-1.9C383.8 3.7 380 2.1 376 1c-2.8-.7-5.6-.8-8.4-.2-1.9.4-3.8.6-5.7.7-6.3.2-12.5 0-18.8.5-9 .6-18 1.4-26.9 2.5-9.9 1.2-19.7 2.8-29.5 4.3-.7.1-1.5.1-2.3 0-13.6-2-27.3-3.2-41.1-3.9-16.4-.8-32.7-1-49.1-.2-3.7.2-7.2 0-10.3-2-.4-.2-.8-.4-1.3-.6-5-2.4-10-2.5-15.1-.4-4.8 2-9.6 3.9-14.5 5.8-.9.4-1.9.7-2.8.8-16.4 2.2-32.6 5.3-48.5 9.7-14.5 4-28.7 9-42.1 16-7.7 4-14.9 8.7-21.3 14.7-4.1 3.9-7.6 8.2-10.1 13.3-4.1 8.5-4.1 17.1 0 25.7 2.5 5.2 6.1 9.5 10.2 13.4 6.7 6.3 14.4 11.1 22.5 15.2 10.8 5.5 22.1 9.7 33.7 13.2.9.3 1.9.6 3.2 1.1-11.6 4.6-22.8 8.6-33.2 14.5 7.2 3.5 14.4 4.1 21.8 1.4 9.8-3.5 19.6-6.9 29.4-10.3 1.4-.5 2.8-.5 4.2-.2 9.2 1.7 18.3 3.5 27.5 4.8 19.5 2.9 39.2 4.2 59 4.6 21.7.4 43.3-.6 64.8-2.9 15.8-1.8 31.5-4.3 47-7.9 16.2-3.8 32-8.6 47.2-15.6 9.5-4.4 18.6-9.6 26.5-16.6 4.1-3.6 7.7-7.6 10.4-12.4 2.6-4.5 4.1-9.4 4.2-14.6.1-6.9-2.2-13-6.1-18.6Zm-132.5-45c-4.8.9-9.5 2.3-14.5 1.9-9.5-.8-19.1-1-28.6-1.3-6.9-.2-13.7 0-20.6 0-3.2 0-4.3-.4-7.3-3.3 23.9-.9 47.5-.1 71 2.6ZM102.6 126.8c-13.9-4-27.5-8.7-40.4-15.4-6.9-3.6-13.4-7.7-19.2-12.8-3.6-3.2-6.9-6.8-9.3-11-5.1-8.8-5-17.6.1-26.3 2.9-4.9 6.8-8.8 11.1-12.4 8-6.6 17-11.4 26.4-15.5 15-6.6 30.6-11.2 46.5-14.7 5.1-1.1 10.3-2.1 15.6-2.8-.5.3-1 .6-1.4.9-4.9 3-10.3 4.5-15.8 5.7-15.2 3.3-30 7.8-44.2 14.2-7.5 3.4-14.8 7.4-21.3 12.5-3.9 3-7.4 6.4-10.2 10.5-2.5 3.7-4.3 7.7-4.8 12.2s.3 8.8 2.2 12.9c2 4.4 5 8 8.5 11.3 6.6 6.2 14.2 10.8 22.3 14.7 12.5 6.1 25.6 10.3 39 13.8 1 .3 2 .6 3.4 1-3 1.5-5.5 2-8.5 1.1Zm16.3-3.5c-1.7.5-3.2.6-4.9.2-14.3-3.4-28.3-7.7-41.7-13.9-7.2-3.3-14.2-7.2-20.4-12.2-4.1-3.3-7.7-6.9-10.4-11.5-2.5-4.2-3.7-8.7-3.1-13.6.4-3.5 1.7-6.7 3.5-9.6 2.4-3.8 5.4-7 8.8-9.9 5.8-4.9 12.2-8.7 19-12 13.6-6.6 28-11.1 42.6-14.7h.9c0 .1 0 .3.1.4-5.6 2.9-11.2 5.9-17 8.9.9 1 2 1.1 2.9.9 1.4-.3 2.8-.7 4.1-1.3 15.9-7 31.7-14.1 47.6-21.1 6.4-2.8 12.9-5.2 19.3-7.8 2.2-.9 4-.8 6.1.3 6.8 3.7 13.9 7.1 21.2 9.8 2.8 1 5.6 2 8.7 2 .6 0 1.2 0 2.2-.2-1-1.1-1.8-1.9-2.5-2.7 2.3-.9 33.1-.6 39.8.4-.8.3-1.2.5-1.7.6-17.8 3.8-35.6 7.6-53.1 12.6-27.9 8-53.9 20.2-78.8 35-10.4 6.2-20.7 12.8-30.6 19.8-.7.5-1.4 1.1-2.4 1.8 3.8 2 7.4 2.4 10.9.3 1.6-.9 3.1-2 4.6-3.1 15.8-11.4 33-20.4 50.5-28.8 27-12.9 55.3-21.7 84.3-28.5 20.9-4.9 41.9-8.5 63.1-11.5 15.3-2.2 30.6-4 46-5.3 7.5-.6 15-.8 22.4-1.1 1 0 2.1.1 3.6.2-.7.7-1 1.1-1.4 1.4-2.4 1.7-4.9 3.4-7.4 5.1-7.4 5.4-15 10.6-22.2 16.2-5.2 4.1-10 8.8-14.9 13.3-1.1 1-1.9 2.4-1.6 4.1 1.1.4 2-.1 2.8-.6 1.9-1.3 3.8-2.6 5.6-4 12.2-9.5 24.8-18.4 38-26.5 2.6-1.6 5.4-2.9 8.1-4.3.7-.4 1.5-.6 2.3-.8 0 .2.2.3.3.5-.8.6-1.6 1.2-2.5 1.8-8.5 5.5-17 10.9-25.3 16.6-22.7 15.5-43.7 33.3-63.4 52.4-4.5 4.3-8.9 8.6-13.2 13-1.6 1.6-3.2 2.2-5.5 2.3-15.1 0-30.1 1.3-45.1 3-25.9 2.9-51.2 8.5-76.4 15.2-8 2.1-15.9 4.6-23.7 7ZM286 108.4c-.2-1.3-.3-2.6-.5-3.9-.6-3.8-2.4-5.4-6.3-5.6-.9 0-1.8 0-2.7-.2-.3 0-.6-.2-1.2-.4.6-.6.9-1.1 1.2-1.4 11.9-10.3 23.8-20.6 35.7-31s24.4-19.9 37.4-28.8c1-.7 1.8-1.1 3.1-.6 8.5 3.5 16.7 7.5 24.3 12.9 4.3 3 8.2 6.4 11.4 10.6 2.9 3.8 4.9 7.9 5.4 12.7.4 4.7-.8 9.1-3.1 13.2-2.2 3.8-5.2 7-8.5 9.9-6.4 5.6-13.7 9.8-21.3 13.4-12.4 5.9-25.4 10-38.7 13.4-15.2 3.8-30.6 6.5-46.2 8.4q-36.6 4.5-73.5 3.3c-10.2-.3-20.5-.9-30.7-1.7-9.1-.8-18.2-2.1-27.3-3.2-.2 0-.4-.2-.9-.4.7-.3 1.1-.5 1.6-.6 9.9-2 19.7-4.2 29.7-5.8 10.9-1.8 21.9-3.3 32.9-4.5 16.6-1.8 33.2-2.9 49.9-2.4 5.5.2 11 .7 16.5 1 3.2.2 6.2-.4 9-2.1 2.3-1.4 3.5-3.4 3-6.1Zm113-21.7c-2.5 4.6-5.9 8.4-9.7 11.8-7.2 6.4-15.5 11.2-24.1 15.3-14.6 6.9-29.9 11.7-45.5 15.5-16.4 3.9-33 6.6-49.7 8.4-24.2 2.7-48.4 3.3-72.6 2.5-22.5-.8-44.8-3-67-7.2-.4 0-.8-.2-1.2-.3 3.3-1.6 6.5-2.1 10.1-1.6 9.4 1.5 18.9 2.7 28.4 3.7 20.6 2.2 41.4 2.7 62.1 2.1 14.6-.4 29.2-1.3 43.7-3 19.6-2.3 39-5.7 58-11.1 13-3.7 25.6-8.2 37.5-14.7 6.1-3.3 11.9-7.2 17-12 3.2-3 5.9-6.4 7.9-10.3 3.8-7.6 3.8-15.1-.1-22.7-2.2-4.3-5.3-7.8-8.9-11-6.6-6-14.2-10.4-22.1-14.2-2.7-1.3-5.4-2.5-8.4-3.8.9-.6 1.6-1.1 2.2-1.6s1.2-.4 1.9-.1c12.3 5.4 24.2 11.5 33.8 21.2 2.6 2.7 5 5.6 6.7 9 4.3 8 4.3 16.1 0 24.1" class="st0"></path><path d="M138.2 45.1c8.4-4.3 17.2-8.1 26.1-11.3 10.1-3.7 20.5-6.6 30.9-9.2 1-.3 2.1-.6 3-1.1 1-.5 1.1-1.3.2-2q-1.2-1.05-2.7-1.8c-5.3-2.4-10.6-4.7-15.8-7.2-3.4-1.6-6.7-1.9-10.2-.7-.9.3-1.8.5-2.6.8-17.8 5.9-34.7 13.7-50.6 23.6-20.9 13-40 28.4-58.1 45.1-.2.2-.4.4-.7.8 2.4 1.2 4.9 1.7 7.5 1.9 6.3.5 11.7-1.6 16.7-5.2 18-12.5 36.8-23.6 56.3-33.6ZM26.4 309.5c0 .6 0 2.2-.1 3.8 0 1.1-.4 1.9-1.2 2.1-.3 0-.8.2-1.3.2s-.6.1-.6.3c0 .3.3.4.8.4 1.4 0 3.8-.1 4.7-.1s3.4.1 5.8.1.8-.1.8-.4-.2-.3-.6-.3-1.4 0-1.9-.2c-1.1-.2-1.5-1-1.6-2.1-.1-1.6-.1-3.2-.1-3.8v-3.1c0-1.3 0-2.4.6-3.8.7-1.6 6-10.6 7.3-12.1.8-1 1.3-1.5 2.1-1.9.6-.3 1.3-.5 1.7-.5s.7-.1.7-.4-.3-.3-.7-.3c-.7 0-3.2.1-4.1.1s-2.3-.1-3.6-.1-.6 0-.6.3.3.3.7.4c.6.2.8.6.8.9s-.2 1.1-.5 2c-.5 1.2-5.3 9.5-5.7 10.4-.6-1.1-5.9-10.2-6.5-11.4-.3-.5-.5-1-.5-1.3s.2-.6.5-.7c.6-.2.8-.2.8-.4s-.2-.3-.6-.3c-1.7 0-3.3.1-4.1.1-1.3 0-4.1-.1-4.8-.1s-.7.1-.7.3.3.3.6.3c.5 0 1.1.2 1.6.5.7.4 1.7 1.4 2.6 2.8 1.3 2 6.4 10.3 6.7 10.9.5 1.1.9 1.9.9 4v3.1Zm72.3-3.2c.2 0 .3 0 .4.3l3 8.1c.2.5 0 .8-.3.9-.4 0-.5.1-.5.3s.5.3 1.1.3h7.2c1.4 0 1.7 0 1.7-.4s-.2-.3-.5-.3c-.5 0-1 0-1.6-.2-.8-.2-1.9-.7-3.3-4.1-2.4-5.8-8.5-21.3-9.4-23.4-.4-.9-.6-1.2-.9-1.2s-.6.4-1.1 1.5L85 312c-.8 1.9-1.5 3.2-3.2 3.4h-1.2c-.4 0-.5 0-.5.3s.2.4.7.4c2 0 4.1-.1 4.5-.1 1.2 0 2.8.1 4 .1s.6 0 .6-.4-.1-.3-.6-.3h-.6c-1.2 0-1.5-.5-1.5-1.2s.2-1.4.6-2.3l2.1-5.4c0-.2.2-.3.3-.3h8.5Zm-7.7-1.9c-.2 0-.2-.1-.2-.3l3.5-9.3c0-.2.1-.3.2-.3s.2.2.2.3l3.4 9.4c0 .1 0 .2-.2.2h-7Zm77.5 12.4c2.4 0 5.3-.3 6.8-.9.6-.3.8-.5 1-1.1.4-1.3.8-4.6.8-5.1s0-.6-.3-.6-.4.2-.5.8c-.2.7-.6 1.8-1.3 2.5-1.5 1.7-3.6 2.1-7 2.1-5.1 0-12-4.5-12-13.5s.7-7.3 3.5-9.8c1.7-1.5 3.8-2.4 7.1-2.4s6.5 1 7.7 2.4c.9 1 1.4 2.3 1.5 3.5 0 .5 0 .8.4.8s.4-.3.5-.9c0-.8 0-2.8.1-4.1 0-1.3.2-1.8.2-2.1s-.2-.4-.6-.5c-1.1-.1-2.4-.5-3.8-.6-1.7-.2-3.2-.4-5.5-.4-5.7 0-9.3 1.5-12 4-3.6 3.3-4.4 7.8-4.4 10.4 0 3.7 1 7.9 4.7 11.2 3.5 3 7.8 4.1 13 4.1Zm62.4-17.2c-.1 0-.2 0-.2-.3v-8.9c0-1.3.4-2 1.4-2.2.5 0 .8-.1 1.1-.1.5 0 .7 0 .7-.3s-.3-.3-.8-.3c-1.5 0-3.9.1-4.8.1s-3.4-.1-5.5-.1-.8 0-.8.3.2.3.6.3 1.2 0 1.5.1c1.3.3 1.6.9 1.6 2.2v14.8c0 3.5 0 6.5-.2 8.1-.2 1.1-.3 1.9-1.1 2.1-.3 0-.8.2-1.4.2s-.6.1-.6.3.3.4.8.4c1.5 0 3.9-.1 4.8-.1s3.5.1 5.9.1.8-.1.8-.4-.2-.3-.6-.3-1.4 0-1.9-.2c-1.1-.2-1.4-1-1.5-2.1-.2-1.6-.2-4.6-.2-8.1v-3.3c0-.2.1-.2.2-.2h14.5c.1 0 .2 0 .2.2v3.3c0 3.5 0 6.5-.2 8.1-.2 1.1-.3 1.9-1.1 2.1-.3 0-.8.2-1.4.2s-.6.1-.6.3.3.4.8.4c1.5 0 3.9-.1 4.7-.1s3.5.1 5.9.1.8-.1.8-.4-.2-.3-.6-.3-1.4 0-1.9-.2c-1.1-.2-1.4-1-1.5-2.1-.2-1.6-.2-4.6-.2-8.1v-14.8c0-1.3.4-2 1.4-2.2.5 0 .8-.1 1.1-.1.5 0 .7 0 .7-.3s-.3-.3-.8-.3c-1.5 0-3.9.1-4.8.1s-3.4-.1-5.5-.1-.8 0-.8.3.2.3.6.3 1.2 0 1.5.1c1.3.3 1.6.9 1.6 2.2v8.9c0 .2-.1.3-.2.3h-14.5Zm77.9 5.6c0 3.5 0 6.5-.2 8.1-.1 1.1-.3 1.9-1.1 2.1-.3 0-.8.2-1.4.2s-.6.1-.6.3.3.4.8.4c1.5 0 3.9-.1 4.8-.1s3.5.1 6 .1.7-.1.7-.4-.2-.3-.6-.3-1.4 0-1.9-.2c-1.1-.2-1.4-1-1.5-2.1-.2-1.6-.2-4.6-.2-8.1v-15.6h4.8c3.4.2 4.4 1.3 4.5 2.2v.4c0 .6.2.8.5.8s.3-.2.3-.6c0-1 .1-3.6.1-4.4s0-.8-.3-.8-.5 0-1 .2c-.6 0-1.4.2-2.6.2h-15c-1.3 0-2.7 0-3.8-.2-.9 0-1.3-.5-1.6-.5s-.3.2-.5.7c0 .3-.8 3.8-.8 4.4s0 .6.3.6.3-.2.4-.5c0-.3.3-.8.6-1.3.6-.8 1.5-1 3.7-1.1l5.7-.2v15.6Zm65.6 11.6c2 0 4.1-.3 6-1.6 2.7-1.8 3.6-4.4 3.6-6.6 0-3.6-1.6-6.2-6.2-9.7l-1.1-.8c-3.2-2.4-4-3.7-4-5.5s1.7-3.9 4.5-3.9 3.6 1.1 4.1 1.9c.8 1 1 2.2 1 2.5s.1.7.4.7.4-.3.4-1.1c0-3 .2-4.1.2-4.6s-.2-.4-.5-.5c-1-.3-2.6-.6-5.1-.6-5.3 0-8.8 3-8.8 7.2s1.4 5.7 5.6 9l1.7 1.4c3.2 2.5 3.7 4.2 3.7 6.1s-1.7 4.3-5.1 4.3-4.6-1-5.4-3.8c-.2-.6-.3-1.4-.3-1.9s0-.6-.4-.6-.4.4-.5 1c0 .6-.2 2.9-.2 5s.1 1 .7 1.3c1.6.7 3.3 1 5.5 1Z" class="st0"></path></svg>