<svg width="49" height="82" viewBox="0 0 49 82" fill="none" xmlns="http://www.w3.org/2000/svg" xmlns:xlink="http://www.w3.org/1999/xlink">
<g clip-path="url(#clip0_101_4503)">
<rect width="48.27" height="81.591" fill="white"></rect>
<mask id="mask0_101_4503" style="mask-type:luminance" maskUnits="userSpaceOnUse" x="27" y="31" width="19" height="16">
<mask id="mask1_101_4503" style="mask-type:luminance" maskUnits="userSpaceOnUse" x="27" y="31" width="19" height="16">
<path d="M27.1399 46.4113V31.0312H45.1099V46.4113H27.1399Z" fill="white"></path>
</mask>
<g mask="url(#mask1_101_4503)">
<path d="M45.0499 34.3213C45.1199 35.2113 44.8399 36.0713 44.2599 37.2513C43.7799 38.2313 42.9699 38.9913 42.1599 39.9813C41.3499 40.9813 40.3799 41.8913 39.2799 42.7313C38.1799 43.5813 37.1999 44.3913 35.9299 44.9613C34.6599 45.5213 33.5099 46.1513 32.4199 46.2813C31.3399 46.4113 30.3799 46.3313 29.5899 46.0713C28.7999 45.8113 28.1799 45.3613 27.7599 44.7513C27.3499 44.1513 27.1399 43.3913 27.1699 42.4813C27.1999 41.5813 27.4699 40.6313 27.9299 39.6713C28.3799 38.7213 29.0199 37.7613 29.7899 36.8513C30.5599 35.9413 31.4699 35.0713 32.4799 34.3013C33.4899 33.5213 34.5999 32.8413 35.7699 32.2913C36.9399 31.7413 38.0699 31.3813 39.1099 31.2013C40.1599 31.0213 41.1199 31.0213 41.9399 31.2013C42.7699 31.3813 43.5099 31.6713 44.0099 32.2013C44.5199 32.7413 44.9699 33.4413 45.0399 34.3213H45.0499ZM41.0899 37.8313C41.0699 37.4013 40.9299 37.0513 40.6999 36.7813C40.4699 36.5113 40.1399 36.3313 39.7499 36.2313C39.3599 36.1313 38.8999 36.1213 38.3899 36.2013C37.8899 36.2813 37.3299 36.4513 36.7599 36.7113C36.1899 36.9713 35.6399 37.3113 35.1499 37.6913C34.6599 38.0713 34.2099 38.5013 33.8399 38.9413C33.4699 39.3913 33.1599 39.8613 32.9499 40.3213C32.7399 40.7913 32.6199 41.2513 32.6199 41.6813C32.6199 42.1113 32.7299 42.4813 32.9499 42.7613C33.1599 43.0513 33.4699 43.2513 33.8599 43.3713C34.2499 43.4913 34.7099 43.5213 35.2199 43.4513C35.7399 43.3813 36.3099 43.2213 36.8999 42.9513C37.4999 42.6813 38.0699 42.3413 38.5799 41.9413C39.0899 41.5413 39.5499 41.1013 39.9399 40.6313C40.3199 40.1613 40.6199 39.6813 40.8199 39.2013C41.0199 38.7213 41.1199 38.2613 41.0999 37.8313H41.0899Z" fill="white"></path>
</g>
</mask>
<g mask="url(#mask0_101_4503)">
<mask id="mask2_101_4503" style="mask-type:luminance" maskUnits="userSpaceOnUse" x="26" y="31" width="20" height="16">
<path d="M45.2399 31.1512H26.9999V46.5112H45.2399V31.1512Z" fill="white"></path>
</mask>
<g mask="url(#mask2_101_4503)">
<rect width="21.12" height="17.28" transform="matrix(1 0 0 -1 25.7499 47.7612)" fill="url(#pattern0_101_4503)"></rect>
</g>
</g>
<mask id="mask3_101_4503" style="mask-type:luminance" maskUnits="userSpaceOnUse" x="1" y="1" width="18" height="19">
<mask id="mask4_101_4503" style="mask-type:luminance" maskUnits="userSpaceOnUse" x="1" y="1" width="18" height="19">
<path d="M1.44995 19.5925V1.3125H18.6399V19.5925H1.44995Z" fill="white"></path>
</mask>
<g mask="url(#mask4_101_4503)">
<path d="M12.62 3.4525C9.32995 5.5025 7.37995 6.5725 4.96995 9.5225C3.99995 10.7025 3.42995 11.3825 2.75995 12.7525C2.42995 13.4325 2.02995 14.5625 2.02995 14.5625L1.85995 15.8225L1.59995 17.5325L1.46995 19.0625L1.44995 19.5825C1.44995 19.4525 1.45995 19.3225 1.46995 19.1825C1.47995 19.0425 1.49995 18.9125 1.51995 18.7725C1.53995 18.6325 1.56995 18.4925 1.59995 18.3425C1.62995 18.2025 1.65995 18.0525 1.69995 17.9025C2.08995 16.3925 2.75995 14.8025 3.82995 13.0225C5.00995 11.0625 5.89995 10.0625 7.52995 8.4725C9.13995 6.8925 10.22 5.7525 12.16 4.3225C13.35 3.4525 16.24 1.6325 17.95 1.3925C18.63 1.3025 16.4 1.4625 15.52 1.8825C14.34 2.4425 13.7 2.7625 12.61 3.4425L12.62 3.4525Z" fill="white"></path>
</g>
</mask>
<g mask="url(#mask3_101_4503)">
<mask id="mask5_101_4503" style="mask-type:luminance" maskUnits="userSpaceOnUse" x="1" y="1" width="18" height="19">
<path d="M18.1199 1.1525H1.31995V19.6325H18.1199V1.1525Z" fill="white"></path>
</mask>
<g mask="url(#mask5_101_4503)">
<rect width="19.2" height="20.64" transform="matrix(1 0 0 -1 0.499939 20.9725)" fill="url(#pattern1_101_4503)"></rect>
</g>
</g>
<mask id="mask6_101_4503" style="mask-type:luminance" maskUnits="userSpaceOnUse" x="0" y="0" width="37" height="35">
<mask id="mask7_101_4503" style="mask-type:luminance" maskUnits="userSpaceOnUse" x="0" y="0" width="37" height="35">
<path d="M0 34.0312V0.03125H36.49V34.0312H0Z" fill="white"></path>
</mask>
<g mask="url(#mask7_101_4503)">
<path d="M36.49 4.78125L35.24 3.48125L33.91 2.31125L33.24 1.79125L31.73 1.19125C30.91 0.931252 29.9 0.551252 28.8 0.401252C27.76 0.251252 26.13 0.0412523 24.84 0.311252C23.57 0.581252 22.72 0.881252 21.29 1.49125C19.87 2.10125 18.37 2.88125 16.82 3.82125C14.67 5.14125 12.62 6.67125 10.73 8.33125C8.84002 9.99125 7.10002 11.7813 5.59002 13.6013C4.07002 15.4513 2.76002 17.3513 1.77002 19.2013C0.76002 21.0913 0.33002 22.9513 0.0500196 24.6613C-0.00998038 25.0013 0.0500196 25.3113 0.0200196 25.6213C1.96211e-05 25.9313 0.29002 27.9213 0.63002 29.3613C0.78002 29.9713 0.85002 30.3213 1.05002 30.9213C1.29002 31.6213 1.80002 32.6613 1.80002 32.6613L2.05002 33.1113L2.61002 34.0313C2.40002 33.7113 2.23002 33.3613 2.09002 32.9813C1.95002 32.6013 1.85002 32.2013 1.78002 31.7713C1.71002 31.3413 1.68002 30.8913 1.68002 30.4113C1.68002 29.9313 1.72002 29.4313 1.80002 28.9113C2.07002 27.0613 2.78002 25.0713 3.83002 23.0613C4.85002 21.0813 6.21002 19.0713 7.79002 17.1213C9.36002 15.1913 11.18 13.3113 13.15 11.5713C15.12 9.84125 17.28 8.24125 19.54 6.87125C21.37 5.76125 23.14 4.89125 24.82 4.24125C26.52 3.58125 28.12 3.16125 29.59 2.97125C31.08 2.78125 32.43 2.82125 33.59 3.11125C34.77 3.41125 35.76 3.96125 36.48 4.78125H36.49Z" fill="white"></path>
</g>
</mask>
<g mask="url(#mask6_101_4503)">
<mask id="mask8_101_4503" style="mask-type:luminance" maskUnits="userSpaceOnUse" x="-1" y="0" width="38" height="35">
<path d="M36.6 0.191254H-0.119995V34.2713H36.6V0.191254Z" fill="white"></path>
</mask>
<g mask="url(#mask8_101_4503)">
<rect width="38.4" height="36" transform="matrix(1 0 0 -1 -0.830017 35.5713)" fill="url(#pattern2_101_4503)"></rect>
</g>
</g>
<mask id="mask9_101_4503" style="mask-type:luminance" maskUnits="userSpaceOnUse" x="3" y="5" width="42" height="39">
<mask id="mask10_101_4503" style="mask-type:luminance" maskUnits="userSpaceOnUse" x="3" y="5" width="42" height="39">
<path d="M3.97998 43.6116V5.10156H44.56V43.6116H3.97998Z" fill="white"></path>
</mask>
<g mask="url(#mask10_101_4503)">
<path d="M44.56 14.7016L42.5 9.25156L41.97 8.06156C41.25 6.85156 40.07 6.06156 38.72 5.58156C37.4 5.10156 35.05 5.13156 33.3 5.31156C31.58 5.49156 29.68 5.98156 27.68 6.77156C25.71 7.55156 23.63 8.64156 21.49 10.0216C19.12 11.5616 16.88 13.3516 14.86 15.2616C12.84 17.1816 11.01 19.2416 9.46 21.3416C7.9 23.4616 6.6 25.6416 5.66 27.7716C4.71 29.9316 4.12 32.0516 4.01 34.0016C3.97 34.7416 3.99 35.4216 4.08 36.0616C4.17 36.7016 4.33 37.3016 4.55 37.8416C4.77 38.3816 5.06 38.8816 5.41 39.3116C5.76 39.7516 6.17 40.1316 6.64 40.4516L8.26 41.4816L9.8 42.3016L11.51 43.0516L13.04 43.6016C12.3 43.3716 11.65 43.0416 11.08 42.6216C10.52 42.2116 10.04 41.7016 9.66 41.1116C9.28 40.5316 9 39.8616 8.82 39.1116C8.64 38.3716 8.56 37.5516 8.59 36.6616C8.64 34.8216 9.14 32.8316 9.99 30.8016C10.83 28.8016 12.01 26.7516 13.45 24.7616C14.88 22.7916 16.57 20.8616 18.45 19.0716C20.33 17.2916 22.41 15.6316 24.64 14.2216C26.86 12.8016 29.03 11.7416 31.06 11.0416C33.13 10.3216 35.84 9.79156 37.56 9.81156C39.32 9.82156 40.85 10.2216 42.04 11.0116C43.26 11.8216 43.5 13.1816 43.9 14.8416L44.54 14.7016H44.56Z" fill="white"></path>
</g>
</mask>
<g mask="url(#mask9_101_4503)">
<mask id="mask11_101_4503" style="mask-type:luminance" maskUnits="userSpaceOnUse" x="3" y="4" width="42" height="40">
<path d="M44.76 4.99156H3.95996V43.6316H44.76V4.99156Z" fill="white"></path>
</mask>
<g mask="url(#mask11_101_4503)">
<rect width="44.16" height="40.8" transform="matrix(1 0 0 -1 3.30994 45.0116)" fill="url(#pattern3_101_4503)"></rect>
</g>
</g>
<mask id="mask12_101_4503" style="mask-type:luminance" maskUnits="userSpaceOnUse" x="13" y="16" width="35" height="32">
<mask id="mask13_101_4503" style="mask-type:luminance" maskUnits="userSpaceOnUse" x="13" y="16" width="35" height="32">
<path d="M13.3999 47.8709V16.2109H47.9299V47.8709H13.3999Z" fill="white"></path>
</mask>
<g mask="url(#mask13_101_4503)">
<path d="M46.1699 25.9509C46.3099 25.5509 47.1699 25.2609 47.2899 24.8509C47.3999 24.4409 47.4999 24.0409 47.5799 23.6309C47.6599 23.2209 47.9099 20.9709 47.9299 20.5609C47.8399 20.3209 47.8699 20.1009 47.7399 19.8509C47.1299 18.6909 46.4999 18.2509 45.4899 17.5709C44.3299 16.7909 42.1099 16.2809 40.3899 16.2509C38.7099 16.2209 36.8099 16.5409 34.7899 17.2009C32.7999 17.8609 30.6699 18.8609 28.4999 20.2109C26.3499 21.5509 24.3399 23.1109 22.5299 24.7909C20.7299 26.4709 19.1199 28.3009 17.7699 30.1609C16.4199 32.0309 15.3199 33.9609 14.5699 35.8309C13.8099 37.7309 13.3899 39.5809 13.4199 41.2809C13.4299 42.3509 13.6199 43.2909 13.9599 44.1109C14.2999 44.9409 14.8099 45.6409 15.4499 46.2009C16.0999 46.7709 16.8699 47.2309 17.8099 47.4409C18.7699 47.6609 19.7299 47.8209 20.9499 47.8709H21.1999L23.0099 47.7509L24.7799 47.5309L25.6599 47.3809L27.2799 47.0209L28.8399 46.5709L29.2699 46.4309L30.6899 45.9109L30.9899 45.7909C29.3499 46.4609 27.8099 46.8609 26.4099 46.9909C25.0299 47.1209 23.7999 46.9909 22.7699 46.6309C21.7499 46.2709 20.9299 45.6709 20.3499 44.8609C19.7799 44.0609 19.4399 43.0409 19.3799 41.8309C19.3199 40.4709 19.6099 38.9809 20.1799 37.4609C20.7499 35.9509 21.5999 34.4009 22.6699 32.8909C23.7299 31.3909 25.0199 29.9209 26.4699 28.5709C27.9199 27.2209 29.5399 25.9709 31.2799 24.9109C33.0299 23.8409 34.7399 23.0609 36.3499 22.5609C37.9699 22.0609 39.4999 21.8409 40.8399 21.9109C42.1999 21.9809 43.3899 22.3409 44.2999 23.0109C45.2299 23.6809 45.8899 24.6709 46.1799 25.9609L46.1699 25.9509Z" fill="white"></path>
</g>
</mask>
<g mask="url(#mask12_101_4503)">
<mask id="mask14_101_4503" style="mask-type:luminance" maskUnits="userSpaceOnUse" x="13" y="16" width="36" height="32">
<path d="M48.1199 16.0309H13.3199V47.9509H48.1199V16.0309Z" fill="white"></path>
</mask>
<g mask="url(#mask14_101_4503)">
<rect width="38.4" height="33.6" transform="matrix(1 0 0 -1 11.8999 49.0009)" fill="url(#pattern4_101_4503)"></rect>
</g>
</g>
<path d="M26.3201 3.1326C26.0901 3.9026 25.5601 4.7326 24.8001 5.5726C24.0301 6.4226 23.0301 7.2826 21.8701 8.0926C20.7001 8.9126 19.3701 9.6826 17.9501 10.3626C16.5301 11.0326 15.0401 11.6026 13.5401 12.0226C12.0501 12.4426 10.7101 12.6626 9.55012 12.7126C8.41012 12.7626 7.46012 12.6326 6.75012 12.3526C6.05012 12.0826 5.57012 11.6526 5.36012 11.1026C5.15012 10.5526 5.21012 9.8826 5.56012 9.1026C5.67012 8.8626 5.80012 8.6326 5.95012 8.3826C6.10012 8.1426 6.28012 7.9026 6.47012 7.6526C6.66012 7.4126 6.88012 7.1626 7.11012 6.9226C7.34012 6.6826 7.59012 6.4426 7.85012 6.2026L8.56012 5.5826L9.26012 5.0126L9.92012 4.5126L10.5801 4.0526L11.2301 3.6226L11.8601 3.2426L12.4901 2.8826C12.4901 2.8826 11.2201 3.8526 10.5901 4.6526C10.2401 5.0926 9.95012 5.4826 9.79012 5.8626C9.63012 6.2426 9.61012 6.5726 9.73012 6.8226C9.85012 7.0826 10.0901 7.2826 10.4501 7.4026C10.8101 7.5226 11.2901 7.5726 11.8501 7.5426C12.4201 7.5026 13.0801 7.3926 13.8001 7.1826C14.5301 6.9726 15.2601 6.6926 15.9401 6.3626C16.6301 6.0326 17.2801 5.6626 17.8501 5.2626C18.4201 4.8726 18.9201 4.4526 19.3101 4.0426C19.7001 3.6326 19.9701 3.2226 20.1101 2.8526C20.2401 2.4726 20.2201 2.1626 20.0701 1.9126C19.9201 1.6726 19.6501 1.4926 19.2701 1.3926C18.8901 1.2926 18.4301 1.3126 17.8701 1.4226C17.3301 1.5226 16.7001 1.5726 16.0001 1.7826C15.5501 1.9126 15.2901 2.0126 14.8601 2.2126C16.1801 1.5226 16.9701 1.2026 18.3901 0.752601C19.3101 0.462601 19.9401 0.292601 20.7801 0.142601C21.7601 -0.0373987 22.5901 -0.0173987 23.3401 0.0426013C24.0901 0.102601 24.7301 0.262601 25.2201 0.512601C25.7201 0.762601 26.0801 1.1126 26.2701 1.5426C26.4601 1.9826 26.4801 2.5126 26.2901 3.1226L26.3201 3.1326Z" fill="#E0001B"></path>
<path d="M44.7801 36.041C44.7801 36.041 44.4501 36.931 44.1601 37.461C43.8801 37.951 43.3501 38.641 43.3501 38.641C43.3501 38.641 43.1701 38.881 43.0501 39.031C42.7201 39.451 42.1701 40.091 42.1701 40.091L41.4401 40.891C40.6801 41.681 39.8201 42.431 38.8601 43.151C37.9001 43.871 36.8601 44.531 35.7601 45.141C34.6501 45.741 33.4901 46.281 32.2801 46.731C31.0801 47.181 29.8401 47.551 28.5901 47.811C28.3401 47.861 28.1001 47.911 27.8601 47.951C27.6201 47.991 27.3801 48.031 27.1501 48.061C26.9201 48.091 26.6801 48.121 26.4501 48.151C26.2201 48.181 26.0001 48.201 25.7701 48.211L24.4101 48.271H24.1101L22.6501 48.231L21.1701 48.101C21.1701 48.101 20.9201 48.071 20.7601 48.051C20.1401 47.961 19.8001 47.911 19.1901 47.781C18.5701 47.651 17.6101 47.401 17.6101 47.401L16.8201 47.131L16.6001 47.031C17.1601 47.251 17.8901 47.451 18.6101 47.571C19.3401 47.681 20.1201 47.741 20.9401 47.761C21.7701 47.771 22.6401 47.731 23.5501 47.631C24.4701 47.531 25.4201 47.381 26.4101 47.171C28.6801 46.691 30.9201 45.941 33.0501 44.991C35.1801 44.041 37.1901 42.901 38.9801 41.631C40.7601 40.371 42.3301 38.981 43.6001 37.551C44.0401 37.051 44.4001 36.601 44.7701 36.051C44.7801 36.031 44.7701 36.071 44.7701 36.071L44.7801 36.041Z" fill="#E0001B"></path>
<path d="M31.7699 1.20117L33.3599 1.80117L34.9299 2.52117L35.4799 2.81117C35.9199 3.04117 36.2999 3.31117 36.6199 3.62117C36.9399 3.93117 37.2099 4.28117 37.3999 4.66117C37.5999 5.05117 37.7199 5.47117 37.7699 5.94117C37.8199 6.41117 37.7999 6.91117 37.6899 7.46117C37.3999 8.89117 36.5699 10.4412 35.2899 12.0012C33.9899 13.6012 32.2399 15.2012 30.1599 16.7312C28.0599 18.2712 25.6499 19.7012 23.0599 20.9412C20.4699 22.1712 17.7299 23.1912 14.9899 23.9012C12.5399 24.5312 10.3099 24.8512 8.37994 24.9012C6.46994 24.9412 4.85994 24.7212 3.58994 24.2612C2.33994 23.8112 1.42994 23.1312 0.899936 22.2612C0.379936 21.4112 0.229936 20.3712 0.479936 19.1812L0.589936 18.6712L1.03994 16.9912L1.60994 15.3612L2.18994 13.9812L2.71994 12.8612L2.62994 13.0912L2.60994 13.1412C2.09994 14.2612 1.99994 15.2412 2.25994 16.0512C2.52994 16.8812 3.17994 17.5412 4.16994 17.9812C5.16994 18.4312 6.51994 18.6512 8.15994 18.6212C9.81994 18.5912 11.7599 18.3012 13.9299 17.7212C16.1099 17.1312 18.2899 16.3112 20.3499 15.3312C22.4099 14.3512 24.3399 13.2212 26.0299 12.0112C27.6999 10.8112 29.1299 9.55117 30.1999 8.30117C31.2599 7.07117 31.9799 5.85117 32.2599 4.73117C32.3999 4.15117 32.4299 3.62117 32.3299 3.15117C32.2399 2.68117 32.0399 2.27117 31.7399 1.91117C31.4399 1.56117 31.0499 1.26117 30.5799 1.02117C30.2599 0.861172 29.8999 0.721172 29.5099 0.611172L28.9299 0.451172C29.1799 0.491172 29.3199 0.511172 29.5099 0.561172C29.5099 0.561172 30.0799 0.701172 30.4399 0.801172C30.9599 0.951172 31.7599 1.23117 31.7599 1.23117L31.7699 1.20117Z" fill="#E0001B"></path>
<path d="M42.3301 8.28078L43.5101 9.76078L44.5801 11.3508L45.0601 12.1608C45.2001 12.4108 45.3201 12.6808 45.4201 12.9608C45.5201 13.2408 45.6001 13.5308 45.6501 13.8308C45.7001 14.1308 45.7401 14.4508 45.7401 14.7808C45.7401 15.1108 45.7301 15.4508 45.6801 15.8008C45.4501 17.6208 44.5401 19.5808 43.0901 21.5508C41.6101 23.5608 39.5601 25.5808 37.1001 27.4708C34.6101 29.3808 31.7201 31.1508 28.6101 32.6408C25.4901 34.1308 22.1701 35.3308 18.8501 36.1108C16.4801 36.6708 14.2801 36.9708 12.2901 37.0408C10.3301 37.1108 8.58012 36.9608 7.09012 36.6008C5.62012 36.2508 4.40012 35.7108 3.45012 35.0108C2.52012 34.3208 1.86012 33.4608 1.49012 32.4708L1.11012 31.3908L0.600118 29.5408L0.240118 27.6808L0.170118 27.1608L0.0701183 26.1108C0.200118 27.1108 0.620118 27.9808 1.31012 28.7108C2.09012 29.5308 3.20012 30.1608 4.61012 30.5708C6.05012 30.9908 7.80012 31.1908 9.80012 31.1308C11.8401 31.0708 14.1401 30.7508 16.6401 30.1308C19.7801 29.3608 22.9101 28.2108 25.8601 26.8008C28.8101 25.3908 31.5501 23.7408 33.9201 21.9608C36.2701 20.2008 38.2301 18.3308 39.6701 16.4708C41.0801 14.6508 41.9801 12.8508 42.2401 11.1808C42.3101 10.7108 42.3401 10.2708 42.3101 9.84078C42.2801 9.42078 42.2101 9.03078 42.0901 8.65078C41.9701 8.28078 41.8101 7.94078 41.6001 7.61078C41.4701 7.41078 41.3301 7.23078 41.1801 7.05078L42.1601 8.08078L42.3101 8.25078L42.3301 8.28078Z" fill="#E0001B"></path>
<path d="M48.1599 22.1514C48.2999 23.6514 48.3499 24.5314 48.1099 26.0214C47.7399 28.3314 47.1399 29.6814 45.8499 31.5614C44.5299 33.4714 42.7099 35.3614 40.4999 37.1214C38.2699 38.9014 35.6799 40.5214 32.8699 41.8614C30.0599 43.2114 27.0599 44.2714 24.0299 44.9314C22.4599 45.2714 20.9699 45.4914 19.5699 45.5814C18.1799 45.6814 16.8799 45.6614 15.6899 45.5314C14.5099 45.4114 13.4399 45.1814 12.4899 44.8614C11.5499 44.5414 10.7199 44.1314 10.0299 43.6314L8.5699 42.4914L7.3499 41.3914C7.3499 41.3914 6.5199 40.5814 6.0399 40.0214C5.6899 39.6214 5.1899 38.9514 5.1899 38.9514C5.7499 39.5914 6.4399 40.1514 7.3099 40.6114C8.3299 41.1514 9.5399 41.5514 10.9299 41.7914C12.3399 42.0414 13.9399 42.1314 15.6799 42.0514C17.4499 41.9614 19.3699 41.7014 21.4199 41.2414C24.7099 40.5014 27.9799 39.3414 31.0399 37.8714C34.1099 36.4014 36.9399 34.6514 39.3699 32.7414C41.7799 30.8514 43.7699 28.8314 45.2099 26.7914C46.6199 24.8014 47.4899 22.8114 47.6899 20.9414C47.7099 20.7414 47.7299 20.5414 47.7299 20.3514C47.7299 20.1614 47.7099 19.9514 47.6899 19.7714C47.6699 19.5714 47.9399 20.6214 47.9399 20.6214C47.9399 20.6214 48.0899 21.5414 48.1499 22.1414L48.1599 22.1514Z" fill="#E0001B"></path>
<path d="M0 81.3804H1.71V77.5404C1.71 74.7704 3 73.9904 4.54 73.9904V72.1304C2.75 72.1304 1.99 73.4404 1.75 74.1604H1.71V72.3404H0V81.3804Z" fill="black"></path>
<path d="M12.4199 79.9309C12.0199 80.0609 11.4899 80.2509 10.7099 80.2509C8.23991 80.2509 7.37991 77.8809 7.37991 76.1809H12.6199V75.7409C12.6199 73.6109 11.5599 72.1109 9.34991 72.1109C8.18991 72.1109 5.65991 72.5309 5.65991 76.4009C5.65991 79.9509 7.40991 81.5709 10.1399 81.5709C11.1299 81.5709 11.6599 81.4409 12.3999 81.2709V79.9209L12.4199 79.9309ZM7.45991 75.0508C7.45991 74.6508 7.85991 73.4509 9.25991 73.4509C10.5699 73.4509 10.9099 74.4808 10.9099 75.0508H7.44991H7.45991Z" fill="black"></path>
<path d="M19.7499 81.381H21.4599V68.271H19.7499V73.591H19.7099C19.4999 73.061 18.7999 72.131 17.2999 72.131C15.2499 72.131 14.1099 74.011 14.1099 77.011C14.1099 79.591 14.9999 81.591 17.2099 81.591C18.7899 81.591 19.5299 80.511 19.7199 79.991H19.7599V81.381H19.7499ZM16.0099 76.851C16.0099 74.951 16.4499 73.451 17.7799 73.451C19.2999 73.451 19.7599 75.251 19.7599 76.831C19.7599 78.411 19.1899 80.251 17.7999 80.251C16.1999 80.251 16.0099 78.221 16.0099 76.851Z" fill="black"></path>
<path d="M29.2599 81.381H30.9699V68.271H29.2599V73.591H29.2199C29.0099 73.061 28.3099 72.131 26.8099 72.131C24.7599 72.131 23.6199 74.011 23.6199 77.011C23.6199 79.591 24.5099 81.591 26.7199 81.591C28.2999 81.591 29.0399 80.511 29.2299 79.991H29.2699V81.381H29.2599ZM25.5199 76.851C25.5199 74.951 25.9599 73.451 27.2899 73.451C28.8099 73.451 29.2699 75.251 29.2699 76.831C29.2699 78.411 28.6999 80.251 27.3099 80.251C25.7099 80.251 25.5199 78.221 25.5199 76.851Z" fill="#E0001B"></path>
<path d="M37.1299 81.5806C39.8499 81.5806 41.1199 79.7006 41.1199 76.8506C41.1199 74.0006 39.8499 72.1206 37.1299 72.1206C34.4099 72.1206 33.1199 73.9606 33.1199 76.8506C33.1199 79.7406 34.3899 81.5806 37.1299 81.5806ZM35.0199 76.8506C35.0199 75.3906 35.2499 73.4506 37.1299 73.4506C39.0099 73.4506 39.2199 75.3906 39.2199 76.8506C39.2199 78.3106 38.9699 80.2506 37.1299 80.2506C35.2899 80.2506 35.0199 78.2906 35.0199 76.8506Z" fill="#E0001B"></path>
<path d="M48.0799 80.1204C47.8299 80.2004 47.4699 80.2504 47.1699 80.2504C45.8399 80.2504 45.7299 79.3004 45.7299 78.4804V73.6504H48.2399V72.3204H45.7299V69.1304L44.0199 70.1904V72.3204H42.4099V73.6504H44.0199V79.3704C44.0199 80.6004 44.5499 81.5704 46.7399 81.5704C47.1999 81.5704 47.6499 81.5304 48.0899 81.4404V80.1104L48.0799 80.1204Z" fill="#E0001B"></path>
</g>
<defs>
<pattern id="pattern0_101_4503" patternContentUnits="objectBoundingBox" width="1" height="1">
<use xlink:href="#image0_101_4503" transform="scale(0.0222222 0.0277778)"></use>
</pattern>
<pattern id="pattern1_101_4503" patternContentUnits="objectBoundingBox" width="1" height="1">
<use xlink:href="#image1_101_4503" transform="scale(0.025 0.0232558)"></use>
</pattern>
<pattern id="pattern2_101_4503" patternContentUnits="objectBoundingBox" width="1" height="1">
<use xlink:href="#image2_101_4503" transform="scale(0.0125 0.0133333)"></use>
</pattern>
<pattern id="pattern3_101_4503" patternContentUnits="objectBoundingBox" width="1" height="1">
<use xlink:href="#image3_101_4503" transform="scale(0.0108696 0.0117647)"></use>
</pattern>
<pattern id="pattern4_101_4503" patternContentUnits="objectBoundingBox" width="1" height="1">
<use xlink:href="#image4_101_4503" transform="scale(0.0123457 0.0140845)"></use>
</pattern>
<clipPath id="clip0_101_4503">
<rect width="48.27" height="81.591" fill="white"></rect>
</clipPath>
<image id="image0_101_4503" width="45" height="36" preserveAspectRatio="none"></image>
<image id="image1_101_4503" width="40" height="43" preserveAspectRatio="none"></image>
<image id="image2_101_4503" width="80" height="75" preserveAspectRatio="none"></image>
<image id="image3_101_4503" width="92" height="85" preserveAspectRatio="none"></image>
<image id="image4_101_4503" width="81" height="71" preserveAspectRatio="none"></image>
</defs>
</svg>