<svg xmlns="http://www.w3.org/2000/svg" width="570.348" height="86.908" viewBox="0 0 570.348 86.908">
  <g id="Group_20481" data-name="Group 20481" transform="translate(0)">
    <g id="Group_20476" data-name="Group 20476">
      <path id="Path_61217" data-name="Path 61217" d="M109.129,68.541,87.5,33.6h-.017L78.066,18.367C73.565,11.064,68.027,0,43.377,0c9.764,4.928,16.646,18.367,16.646,18.367L81.532,53.309h.041l9.393,15.232c4.516,7.3,10.077,18.367,35.011,18.367C116.094,81.98,109.129,68.541,109.129,68.541Z" fill="#3dbee3"></path>
      <path id="Path_61218" data-name="Path 61218" d="M147.147,68.541,125.323,33.6h-.018l-9.5-15.231C111.27,11.064,105.672,0,81.022,0c9.791,4.928,16.746,18.367,16.746,18.367l21.7,34.942h.041l9.477,15.232c4.556,7.3,10.177,18.367,35.111,18.367C154.186,81.98,147.147,68.541,147.147,68.541Z" fill="#3dbee3"></path>
      <path id="Path_61219" data-name="Path 61219" d="M71.11,68.541,49.668,33.6H49.65L40.321,18.367C35.859,11.064,30.383,0,5.733,0,15.47,4.928,22.278,18.367,22.278,18.367L43.6,53.309h.041l9.311,15.232c4.476,7.3,9.976,18.367,34.91,18.367C78,81.98,71.11,68.541,71.11,68.541Z" fill="#fff"></path>
      <path id="Path_61220" data-name="Path 61220" d="M11.823,47.177a13.7,13.7,0,0,1,8.143-13.46C9.306,34.608-.4,44.766.013,55.994.6,71.748,13.779,82.3,33.037,84.959c8.729,1.206,18.715.658,26.411.605-2.5-.066-11.184-.913-13.716-1.4C28.391,80.859,12.444,63.99,11.823,47.177Z" fill="#fff"></path>
    </g>
    <g id="Group_20480" data-name="Group 20480">
      <g id="Group_20478" data-name="Group 20478">
        <rect id="Rectangle_55" data-name="Rectangle 55" width="0.867" height="16.6" transform="translate(416.958 58.687)" fill="#fff"></rect>
        <g id="Group_20477" data-name="Group 20477">
          <path id="Path_61221" data-name="Path 61221" d="M193.778,61.608h2.112l4.178,9.5,4.178-9.5h2.112V72.9H205.1V62.819h-.031L200.658,72.9h-1.149l-4.442-10.079h-.031V72.9h-1.258Z" fill="#fff"></path>
          <path id="Path_61222" data-name="Path 61222" d="M236.035,61.608h1.677l5.793,11.29h-1.537l-1.46-2.935h-7.283L231.749,72.9h-1.523Zm3.867,7.144-3.028-6.073-3.029,6.073Z" fill="#fff"></path>
          <path id="Path_61223" data-name="Path 61223" d="M267.373,61.608h6.522c1.8,0,4.442.388,4.442,3.152,0,2.361-2.19,3.045-3.556,3.106l3.727,5.032h-1.693l-3.634-5h-4.442v5h-1.366Zm1.366,5.078h4.846c1.972,0,3.447-.28,3.447-1.941s-1.475-1.926-3.447-1.926h-4.846Z" fill="#fff"></path>
          <path id="Path_61224" data-name="Path 61224" d="M303.309,61.608h1.366V72.9h-1.366Z" fill="#fff"></path>
          <path id="Path_61225" data-name="Path 61225" d="M329.756,61.608H331.7l8.4,9.287V61.608h1.367V72.9H340.1l-9.038-10.079V72.9h-1.3Z" fill="#fff"></path>
          <path id="Path_61226" data-name="Path 61226" d="M366.546,61.608h10.063v1.211h-8.7v3.6h7.268v1.211h-7.268v4.054H376.8V72.9h-10.25Z" fill="#fff"></path>
          <path id="Path_61227" data-name="Path 61227" d="M457.673,71.749h2.267V62.88l-2.454.172V62.12a14.4,14.4,0,0,0,2.827-.792h.886V71.749h2.251V72.9h-5.777Z" fill="#fff"></path>
          <path id="Path_61228" data-name="Path 61228" d="M490.005,70.848a4.676,4.676,0,0,0,3.37,1.18,4.5,4.5,0,0,0,4.21-4.939,6.341,6.341,0,0,1-4.38,1.74c-3.06,0-4.644-1.678-4.644-3.649,0-2.78,2.376-3.852,4.908-3.852,3.122,0,5.373,2.1,5.373,5.715,0,4.1-2.655,6.135-5.575,6.135a5.621,5.621,0,0,1-4.053-1.367Zm3.262-3.168a5.434,5.434,0,0,0,4.146-1.957,3.829,3.829,0,0,0-4.006-3.246c-1.973,0-3.541.885-3.541,2.593C489.866,66.654,491.341,67.68,493.267,67.68Z" fill="#fff"></path>
          <path id="Path_61229" data-name="Path 61229" d="M530.352,73.178h-1.258v-2.8h-7.408V69.264l6.865-7.656h1.8v7.624h1.832v1.15h-1.832Zm-1.258-3.946V62.585l-5.963,6.647Z" fill="#fff"></path>
          <path id="Path_61230" data-name="Path 61230" d="M556.363,70.226a4.279,4.279,0,0,0,3.944,1.8c2.517,0,3.759-1.165,3.759-2.857,0-1.863-1.911-2.734-3.587-2.734a4.155,4.155,0,0,0-3.557,1.569l-1.025-.295.435-6.1h8.138v1.149h-7.082l-.279,3.587a5.712,5.712,0,0,1,3.555-1.056c2.563,0,4.706,1.429,4.706,3.914,0,2.081-1.49,3.976-4.907,3.976-3.121,0-4.146-1.119-5.079-2.1Z" fill="#fff"></path>
        </g>
      </g>
      <g id="Group_20479" data-name="Group 20479">
        <path id="Path_61231" data-name="Path 61231" d="M290.136,37.737H243.224V11.687h5.793V31.944h41.119Z" fill="#fff"></path>
        <path id="Path_61232" data-name="Path 61232" d="M368.884,37.737H321.971V11.687h5.793V31.944h41.12Z" fill="#fff"></path>
        <rect id="Rectangle_56" data-name="Rectangle 56" width="5.793" height="26.04" transform="translate(403.079 11.687)" fill="#fff"></rect>
        <path id="Path_61233" data-name="Path 61233" d="M555.083,11.621H524.312V37.737H555c.133.006.363.015.67.015,1.995,0,7.281-.349,10.96-3.779a12.153,12.153,0,0,0,3.716-9.3C570.348,14.524,560.389,11.7,555.083,11.621Zm7.615,18.1c-2.627,2.471-7.286,2.239-7.422,2.23l-25.17-.006V17.406l24.925.007c9.256.2,9.524,6.543,9.524,7.265A6.53,6.53,0,0,1,562.7,29.72Z" fill="#fff"></path>
        <path id="Path_61234" data-name="Path 61234" d="M489.9,27.6V21.81h-41.12V17.577h40.8V11.783H442.989V37.737H489.9V31.944h-41.12V27.6Z" fill="#fff"></path>
        <path id="Path_61235" data-name="Path 61235" d="M204.073,37.726h7.943l-26.434-25.6-26.435,25.6h7.944l4.717-4.681h27.543ZM177.3,27.674l8.283-8.021,8.247,8.021Z" fill="#fff"></path>
      </g>
    </g>
  </g>
</svg>