<svg width="511" height="122" viewBox="0 0 511 122" fill="none" xmlns="http://www.w3.org/2000/svg">
<g filter="url(#filter0_d_56127_25255)">
<path d="M3.99998 87.1531V2.53843H67.5818V15.5933H18.868V38.0766H50.9007V50.7688H18.868V74.0982H68.0654V87.1531H3.99998ZM94.3856 88.241C89.9534 88.241 86.0047 87.4351 82.5396 85.8234C79.155 84.2117 76.4956 81.9956 74.5616 79.1751C72.6275 76.2741 71.6605 72.9701 71.6605 69.2631C71.6605 63.2998 73.8766 58.6661 78.3088 55.3621C82.8216 52.0581 88.9864 50.4061 96.8032 50.4061C102.605 50.4061 108.005 51.3732 113.001 53.3072V47.7468C113.001 43.7176 111.792 40.6956 109.374 38.681C107.038 36.6663 103.532 35.659 98.8581 35.659C96.1182 35.659 93.2171 36.062 90.1549 36.8678C87.0926 37.6737 83.5872 39.0033 79.6385 40.8568L74.5616 30.2195C79.3161 28.0437 83.8289 26.432 88.0999 25.3844C92.371 24.2562 96.6823 23.6921 101.034 23.6921C109.254 23.6921 115.62 25.6664 120.133 29.6151C124.645 33.5638 126.902 39.1242 126.902 46.2963V87.1531H113.001V82.1971C110.342 84.2923 107.481 85.8234 104.418 86.7904C101.356 87.7575 98.0119 88.241 94.3856 88.241ZM85.078 68.9005C85.078 71.6404 86.2465 73.8565 88.5835 75.5488C90.9204 77.1605 94.023 77.9663 97.8911 77.9663C100.873 77.9663 103.613 77.5634 106.111 76.7576C108.69 75.8711 110.986 74.5818 113.001 72.8895V62.9775C110.825 61.9299 108.528 61.1643 106.111 60.6808C103.774 60.1167 101.195 59.8346 98.3746 59.8346C94.2647 59.8346 91.001 60.6405 88.5835 62.2522C86.2465 63.8639 85.078 66.08 85.078 68.9005ZM157.722 88.3619C152.162 88.3619 147.004 87.5963 142.25 86.0652C137.495 84.5341 133.385 82.318 129.92 79.4169L137.173 69.9884C140.638 72.5671 144.022 74.5012 147.326 75.7905C150.711 76.9993 154.096 77.6037 157.48 77.6037C161.509 77.6037 164.773 76.8784 167.271 75.4279C169.769 73.8968 171.018 71.9224 171.018 69.5049C171.018 67.5708 170.293 66.0397 168.843 64.9115C167.392 63.7833 165.136 62.9775 162.074 62.494L150.469 60.8017C144.264 59.9152 139.59 57.9812 136.447 54.9995C133.305 51.9373 131.733 47.9483 131.733 43.0326C131.733 39.1645 132.74 35.8202 134.755 32.9997C136.85 30.0986 139.792 27.8422 143.579 26.2305C147.367 24.6188 151.799 23.813 156.876 23.813C161.389 23.813 165.74 24.4577 169.931 25.747C174.202 27.0364 178.231 29.0107 182.018 31.67L175.128 40.9777C171.663 38.8019 168.359 37.2304 165.216 36.2634C162.074 35.2158 158.89 34.692 155.667 34.692C152.282 34.692 149.542 35.377 147.447 36.7469C145.433 38.0363 144.425 39.8092 144.425 42.0656C144.425 44.0802 145.151 45.6516 146.601 46.7798C148.052 47.8274 150.469 48.593 153.854 49.0765L165.337 50.7688C171.542 51.5746 176.257 53.5087 179.48 56.5709C182.703 59.5526 184.315 63.461 184.315 68.2961C184.315 72.1642 183.147 75.6294 180.81 78.6916C178.473 81.6733 175.29 84.0505 171.26 85.8234C167.312 87.5157 162.799 88.3619 157.722 88.3619ZM192.027 113.142C190.737 113.142 189.448 113.061 188.159 112.9C186.95 112.82 185.943 112.658 185.137 112.417V100.208C186.668 100.53 188.521 100.691 190.697 100.691C196.499 100.691 200.649 97.7501 203.148 91.8673L204.961 87.5157L180.422 24.9009H196.016L212.939 69.9884L231.796 24.9009H247.147L217.653 93.5596C215.638 98.2336 213.422 102.021 211.005 104.922C208.668 107.823 205.968 109.918 202.906 111.208C199.844 112.497 196.217 113.142 192.027 113.142ZM250.733 87.1531V2.53843H314.556V15.5933H265.601V38.681H297.875V51.3732H265.601V87.1531H250.733ZM339.214 88.3619C334.459 88.3619 330.228 87.3545 326.522 85.3399C322.815 83.2447 319.914 80.3436 317.818 76.6367C315.804 72.9298 314.796 68.6587 314.796 63.8236V24.9009H328.818V61.5269C328.818 65.9591 330.108 69.5049 332.686 72.1642C335.346 74.8235 338.851 76.1532 343.203 76.1532C346.265 76.1532 349.005 75.5085 351.422 74.2191C353.84 72.9298 355.814 71.1166 357.345 68.7796V24.9009H371.488V87.1531H357.345V81.4718C352.51 86.0652 346.466 88.3619 339.214 88.3619ZM380.325 87.1531V24.9009H394.467V30.703C399.222 26.0291 405.266 23.6921 412.599 23.6921C417.354 23.6921 421.544 24.7397 425.17 26.8349C428.877 28.9301 431.778 31.8312 433.874 35.5381C435.969 39.1645 437.016 43.4355 437.016 48.3512V87.1531H422.874V50.527C422.874 46.0142 421.584 42.4685 419.006 39.8898C416.427 37.311 412.962 36.0217 408.61 36.0217C405.548 36.0217 402.808 36.6663 400.39 37.9557C398.053 39.1645 396.079 40.8971 394.467 43.1535V87.1531H380.325ZM474.138 88.1201C468.336 88.1201 463.017 86.7099 458.182 83.8894C453.347 80.9883 449.519 77.1202 446.699 72.2851C443.959 67.45 442.589 62.0104 442.589 55.9665C442.589 50.0032 443.999 44.604 446.82 39.7689C449.64 34.9338 453.468 31.106 458.303 28.2855C463.138 25.465 468.537 24.0547 474.501 24.0547C477.724 24.0547 480.867 24.5382 483.929 25.5053C486.992 26.3917 489.812 27.7617 492.391 29.6151V2.53843L506.533 -1.0476e-06V87.1531H492.512V81.5927C487.354 85.9443 481.23 88.1201 474.138 88.1201ZM476.193 75.9114C479.497 75.9114 482.519 75.3473 485.259 74.2191C488.079 73.0103 490.457 71.2778 492.391 69.0214V42.7908C490.457 40.6956 488.079 39.0839 485.259 37.9557C482.519 36.7469 479.497 36.1425 476.193 36.1425C472.567 36.1425 469.222 37.029 466.16 38.8019C463.179 40.4941 460.801 42.8311 459.028 45.8128C457.336 48.7944 456.49 52.179 456.49 55.9665C456.49 59.6735 457.336 63.058 459.028 66.1203C460.801 69.102 463.179 71.4792 466.16 73.2521C469.222 75.025 472.567 75.9114 476.193 75.9114Z" fill="black"></path>
</g>
<defs>
<filter id="filter0_d_56127_25255" x="0" y="0" width="510.534" height="121.142" filterUnits="userSpaceOnUse" color-interpolation-filters="sRGB">
<feFlood flood-opacity="0" result="BackgroundImageFix"></feFlood>
<feColorMatrix in="SourceAlpha" type="matrix" values="0 0 0 0 0 0 0 0 0 0 0 0 0 0 0 0 0 0 127 0" result="hardAlpha"></feColorMatrix>
<feOffset dy="4"></feOffset>
<feGaussianBlur stdDeviation="2"></feGaussianBlur>
<feComposite in2="hardAlpha" operator="out"></feComposite>
<feColorMatrix type="matrix" values="0 0 0 0 0 0 0 0 0 0 0 0 0 0 0 0 0 0 0.25 0"></feColorMatrix>
<feBlend mode="normal" in2="BackgroundImageFix" result="effect1_dropShadow_56127_25255"></feBlend>
<feBlend mode="normal" in="SourceGraphic" in2="effect1_dropShadow_56127_25255" result="shape"></feBlend>
</filter>
</defs>
</svg>