<svg width="521" height="62" viewBox="0 0 521 62" fill="none" xmlns="http://www.w3.org/2000/svg">
<path d="M0 60.6443V0.938236H15.95L32.2413 33.0942L48.6178 0.938236H64.4825V60.6443H52.7972V16.7177L32.156 56.3795L11.4294 16.6324V60.6443H0Z" fill="black"></path>
<path d="M87.7739 61.4119C84.5895 61.4119 81.7748 60.8433 79.3297 59.706C76.8846 58.5119 74.9797 56.8913 73.615 54.8442C72.2503 52.7972 71.5679 50.4374 71.5679 47.7648C71.5679 43.5001 73.1601 40.2021 76.3444 37.8707C79.5856 35.4824 84.0209 34.2883 89.6503 34.2883C93.517 34.2883 97.1562 34.8854 100.568 36.0795V32.8383C100.568 30.2795 99.7719 28.3746 98.1798 27.1236C96.5876 25.8158 94.2562 25.1618 91.1856 25.1618C89.3092 25.1618 87.2905 25.4461 85.1297 26.0148C82.9689 26.5834 80.467 27.4932 77.6238 28.7442L73.3591 20.1295C76.8846 18.4804 80.2395 17.2863 83.4239 16.5471C86.665 15.751 89.9062 15.353 93.1474 15.353C99.1749 15.353 103.838 16.803 107.136 19.703C110.434 22.5461 112.083 26.5834 112.083 31.8148V60.6443H100.568V57.4884C98.7484 58.8531 96.7866 59.8482 94.6827 60.4737C92.5788 61.0992 90.2758 61.4119 87.7739 61.4119ZM82.6562 47.5089C82.6562 49.2148 83.3954 50.5795 84.8739 51.6031C86.3523 52.5697 88.3425 53.0531 90.8445 53.0531C92.7209 53.0531 94.4837 52.8256 96.1327 52.3707C97.7817 51.8589 99.2602 51.0913 100.568 50.0678V43.6707C99.1464 43.1021 97.668 42.6756 96.1327 42.3913C94.5974 42.107 92.9484 41.9648 91.1856 41.9648C88.5131 41.9648 86.4091 42.4766 84.8739 43.5001C83.3954 44.4668 82.6562 45.803 82.6562 47.5089Z" fill="black"></path>
<path d="M137.642 61.4972C133.605 61.4972 129.824 60.9854 126.298 59.9619C122.83 58.8815 119.816 57.3462 117.257 55.356L123.057 47.5942C125.673 49.3001 128.146 50.5795 130.478 51.4325C132.809 52.2286 135.14 52.6266 137.472 52.6266C140.087 52.6266 142.163 52.2001 143.698 51.3472C145.29 50.4942 146.087 49.357 146.087 47.9354C146.087 46.7981 145.632 45.8883 144.722 45.206C143.869 44.5236 142.476 44.0403 140.542 43.756L132.013 42.4766C127.578 41.7942 124.223 40.3726 121.948 38.2119C119.674 35.9942 118.536 33.0942 118.536 29.5118C118.536 26.6118 119.276 24.1099 120.754 22.0059C122.289 19.902 124.422 18.2814 127.151 17.1442C129.937 16.0069 133.236 15.4383 137.045 15.4383C140.287 15.4383 143.442 15.8932 146.513 16.803C149.64 17.7128 152.569 19.1059 155.298 20.9824L149.669 28.5736C147.224 27.0952 144.892 26.0148 142.675 25.3324C140.457 24.5932 138.211 24.2236 135.937 24.2236C133.833 24.2236 132.127 24.6216 130.819 25.4177C129.568 26.2138 128.942 27.2658 128.942 28.5736C128.942 29.7677 129.397 30.706 130.307 31.3883C131.274 32.0707 132.837 32.554 134.998 32.8383L143.528 34.1177C147.906 34.7432 151.261 36.1648 153.592 38.3824C155.924 40.5432 157.09 43.3579 157.09 46.8266C157.09 49.6697 156.237 52.2001 154.531 54.4178C152.825 56.5786 150.522 58.3129 147.622 59.6207C144.722 60.8717 141.395 61.4972 137.642 61.4972Z" fill="black"></path>
<path d="M183.142 61.3266C178.195 61.3266 174.442 60.2178 171.883 58.0001C169.381 55.7256 168.13 52.4276 168.13 48.106V26.0148H159.004V16.2059H168.13V4.77648L179.816 2.21765V16.2059H192.525V26.0148H179.816V45.7178C179.816 47.7648 180.271 49.2433 181.18 50.1531C182.09 51.006 183.682 51.4325 185.957 51.4325C187.094 51.4325 188.118 51.3756 189.028 51.2619C189.994 51.0913 191.046 50.807 192.183 50.4089V60.0472C190.989 60.4452 189.511 60.758 187.748 60.9854C185.985 61.2129 184.45 61.3266 183.142 61.3266Z" fill="black"></path>
<path d="M219.558 61.4972C215.123 61.4972 211.086 60.4737 207.446 58.4266C203.864 56.3796 201.021 53.6217 198.917 50.1531C196.813 46.6844 195.761 42.7893 195.761 38.4677C195.761 34.1462 196.756 30.2511 198.746 26.7824C200.794 23.3138 203.551 20.5559 207.02 18.5089C210.489 16.4618 214.355 15.4383 218.62 15.4383C222.885 15.4383 226.666 16.4902 229.964 18.5942C233.262 20.6412 235.849 23.4844 237.726 27.1236C239.659 30.706 240.626 34.7717 240.626 39.3207V42.3913H207.702C208.214 44.154 209.039 45.7462 210.176 47.1678C211.37 48.5893 212.82 49.6982 214.526 50.4942C216.289 51.2335 218.165 51.6031 220.155 51.6031C222.146 51.6031 223.965 51.3187 225.614 50.7501C227.32 50.1246 228.77 49.2433 229.964 48.106L237.641 55.1001C234.911 57.3178 232.097 58.9384 229.197 59.9619C226.353 60.9854 223.141 61.4972 219.558 61.4972ZM207.532 34.0324H229.111C228.713 32.2697 227.974 30.7344 226.894 29.4265C225.87 28.0618 224.619 27.0099 223.141 26.2707C221.719 25.4746 220.127 25.0765 218.364 25.0765C216.601 25.0765 214.981 25.4461 213.502 26.1854C212.024 26.9246 210.773 27.9765 209.749 29.3412C208.726 30.6491 207.987 32.2128 207.532 34.0324Z" fill="black"></path>
<path d="M247.785 60.6443V16.2059H259.471V21.153C260.892 19.2197 262.598 17.7412 264.588 16.7177C266.579 15.6942 268.825 15.1824 271.327 15.1824C273.487 15.2393 275.108 15.552 276.188 16.1206V26.4412C275.335 26.0432 274.397 25.7589 273.374 25.5883C272.35 25.3608 271.298 25.2471 270.218 25.2471C267.943 25.2471 265.868 25.8157 263.991 26.953C262.115 28.0903 260.608 29.7109 259.471 31.8148V60.6443H247.785Z" fill="black"></path>
<path d="M312.797 61.4972C308.362 61.4972 304.211 60.7296 300.344 59.1943C296.477 57.6021 293.094 55.4129 290.194 52.6266C287.351 49.8403 285.105 46.5991 283.456 42.903C281.864 39.1501 281.067 35.1128 281.067 30.7913C281.067 26.4128 281.864 22.3755 283.456 18.6795C285.105 14.9265 287.379 11.6569 290.279 8.87061C293.179 6.08433 296.534 3.92354 300.344 2.38824C304.211 0.79608 308.362 0 312.797 0C316.095 0 319.279 0.454902 322.35 1.36471C325.421 2.27451 328.264 3.55393 330.879 5.20295C333.552 6.85198 335.826 8.84218 337.703 11.1736L329.344 19.4471C327.183 16.7745 324.681 14.7559 321.838 13.3912C319.052 12.0265 316.038 11.3441 312.797 11.3441C310.124 11.3441 307.622 11.8559 305.291 12.8794C302.96 13.8461 300.941 15.2108 299.235 16.9736C297.529 18.6795 296.193 20.7265 295.226 23.1148C294.26 25.4461 293.776 28.005 293.776 30.7913C293.776 33.5207 294.26 36.0511 295.226 38.3824C296.25 40.7138 297.615 42.7609 299.32 44.5236C301.083 46.2864 303.159 47.6511 305.547 48.6178C307.935 49.5844 310.494 50.0678 313.223 50.0678C316.351 50.0678 319.279 49.4138 322.009 48.106C324.738 46.7981 327.126 44.9217 329.173 42.4766L337.362 50.4942C335.485 52.7688 333.239 54.7305 330.623 56.3795C328.008 58.0286 325.165 59.308 322.094 60.2178C319.08 61.0707 315.981 61.4972 312.797 61.4972Z" fill="black"></path>
<path d="M364.24 61.4972C359.805 61.4972 355.768 60.4737 352.128 58.4266C348.546 56.3796 345.703 53.6217 343.599 50.1531C341.552 46.6844 340.528 42.7893 340.528 38.4677C340.528 34.1462 341.552 30.2511 343.599 26.7824C345.703 23.2569 348.546 20.4706 352.128 18.4236C355.768 16.3765 359.805 15.353 364.24 15.353C368.675 15.353 372.684 16.3765 376.267 18.4236C379.906 20.4706 382.749 23.2569 384.796 26.7824C386.9 30.2511 387.952 34.1462 387.952 38.4677C387.952 42.7893 386.9 46.6844 384.796 50.1531C382.749 53.6217 379.906 56.3796 376.267 58.4266C372.684 60.4737 368.675 61.4972 364.24 61.4972ZM364.24 51.3472C366.571 51.3472 368.647 50.7786 370.467 49.6413C372.343 48.4472 373.822 46.8834 374.902 44.9501C375.982 43.0168 376.522 40.856 376.522 38.4677C376.522 36.0226 375.982 33.8334 374.902 31.9001C373.822 29.9667 372.343 28.4314 370.467 27.2942C368.647 26.1001 366.571 25.503 364.24 25.503C361.966 25.503 359.89 26.1001 358.014 27.2942C356.137 28.4314 354.659 29.9667 353.578 31.9001C352.498 33.8334 351.958 36.0226 351.958 38.4677C351.958 40.856 352.498 43.0168 353.578 44.9501C354.659 46.8834 356.137 48.4472 358.014 49.6413C359.89 50.7786 361.966 51.3472 364.24 51.3472Z" fill="black"></path>
<path d="M408.3 60.6443L389.279 16.2059H401.988L414.185 45.803L426.297 16.2059H438.75L419.729 60.6443H408.3Z" fill="black"></path>
<path d="M463.863 61.4972C459.428 61.4972 455.391 60.4737 451.751 58.4266C448.169 56.3796 445.326 53.6217 443.222 50.1531C441.118 46.6844 440.066 42.7893 440.066 38.4677C440.066 34.1462 441.061 30.2511 443.051 26.7824C445.098 23.3138 447.856 20.5559 451.325 18.5089C454.794 16.4618 458.66 15.4383 462.925 15.4383C467.19 15.4383 470.971 16.4902 474.269 18.5942C477.567 20.6412 480.154 23.4844 482.031 27.1236C483.964 30.706 484.931 34.7717 484.931 39.3207V42.3913H452.007C452.519 44.154 453.344 45.7462 454.481 47.1678C455.675 48.5893 457.125 49.6982 458.831 50.4942C460.594 51.2335 462.47 51.6031 464.46 51.6031C466.45 51.6031 468.27 51.3187 469.919 50.7501C471.625 50.1246 473.075 49.2433 474.269 48.106L481.946 55.1001C479.216 57.3178 476.401 58.9384 473.501 59.9619C470.658 60.9854 467.446 61.4972 463.863 61.4972ZM451.837 34.0324H473.416C473.018 32.2697 472.279 30.7344 471.199 29.4265C470.175 28.0618 468.924 27.0099 467.446 26.2707C466.024 25.4746 464.432 25.0765 462.669 25.0765C460.906 25.0765 459.286 25.4461 457.807 26.1854C456.329 26.9246 455.078 27.9765 454.054 29.3412C453.031 30.6491 452.292 32.2128 451.837 34.0324Z" fill="black"></path>
<path d="M492.09 60.6443V16.2059H503.776V21.153C505.197 19.2197 506.903 17.7412 508.893 16.7177C510.883 15.6942 513.13 15.1824 515.632 15.1824C517.792 15.2393 519.413 15.552 520.493 16.1206V26.4412C519.64 26.0432 518.702 25.7589 517.679 25.5883C516.655 25.3608 515.603 25.2471 514.523 25.2471C512.248 25.2471 510.173 25.8157 508.296 26.953C506.42 28.0903 504.913 29.7109 503.776 31.8148V60.6443H492.09Z" fill="black"></path>
</svg>